<?xml version="1.0" encoding="UTF-8" standalone="no"?>
<!-- Created with Inkscape (http://www.inkscape.org/) -->

<svg
   width="130mm"
   height="130mm"
   viewBox="0 0 130 130"
   version="1.1"
   id="svg5"
   xml:space="preserve"
   inkscape:version="1.2.1 (9c6d41e, 2022-07-14)"
   sodipodi:docname="logo.svg"
   inkscape:export-filename="khanhgarage.png"
   inkscape:export-xdpi="103.471"
   inkscape:export-ydpi="103.471"
   xmlns:inkscape="http://www.inkscape.org/namespaces/inkscape"
   xmlns:sodipodi="http://sodipodi.sourceforge.net/DTD/sodipodi-0.dtd"
   xmlns="http://www.w3.org/2000/svg"
   xmlns:svg="http://www.w3.org/2000/svg"><sodipodi:namedview
     id="namedview7"
     pagecolor="#ffffff"
     bordercolor="#666666"
     borderopacity="1.0"
     inkscape:showpageshadow="2"
     inkscape:pageopacity="0.0"
     inkscape:pagecheckerboard="0"
     inkscape:deskcolor="#d1d1d1"
     inkscape:document-units="mm"
     showgrid="false"
     inkscape:zoom="0.54088406"
     inkscape:cx="267.15522"
     inkscape:cy="281.02141"
     inkscape:window-width="1309"
     inkscape:window-height="456"
     inkscape:window-x="0"
     inkscape:window-y="25"
     inkscape:window-maximized="0"
     inkscape:current-layer="layer1" /><defs
     id="defs2"><rect
       x="-749.83728"
       y="-74.24131"
       width="675.59595"
       height="402.75912"
       id="rect3650" /></defs><g
     inkscape:label="Layer 1"
     inkscape:groupmode="layer"
     id="layer1"
     transform="translate(101.68201,-69.265975)"><path
       style="color:#000000;fill:#333333;stroke-miterlimit:7;-inkscape-stroke:none"
       d="m 260.34622,71.954408 c -11.3159,0 -20.5,9.184098 -20.5,20.499988 0,11.315904 9.1841,20.500004 20.5,20.500004 11.31591,0 20.5,-9.1841 20.5,-20.500004 10e-6,-11.31589 -9.18409,-20.499988 -20.5,-20.499988 z m 0,1 c 10.77547,0 19.50001,8.724528 19.5,19.499988 0,10.775464 -8.72453,19.500004 -19.5,19.500004 -10.77546,0 -19.5,-8.72454 -19.5,-19.500004 0,-10.77545 8.72454,-19.499988 19.5,-19.499988 z"
       id="path8589" /><path
       style="color:#000000;fill:#333333;fill-opacity:0.828326;stroke:none;stroke-linecap:round;stroke-miterlimit:7;stroke-opacity:1;-inkscape-stroke:none"
       d="m 260.45274,79.820873 c -5.349,0.0019 -10.12662,3.360143 -11.93946,8.392583 a 0.5,0.5 0 0 0 0.30078,0.63867 0.5,0.5 0 0 0 0.64063,-0.30078 c 1.67117,-4.63918 6.06705,-7.728746 10.99805,-7.730473 4.93263,-1.33e-4 9.33217,3.089763 11.0039,7.730473 a 0.5,0.5 0 0 0 0.63867,0.30078 0.5,0.5 0 0 0 0.30078,-0.63867 c -1.81344,-5.0341 -6.59258,-8.392727 -11.94335,-8.392583 z m -11.63868,16.357423 a 0.5,0.5 0 0 0 -0.30078,0.64062 c 1.81284,5.032434 6.59046,8.390694 11.93946,8.392584 5.34897,-0.002 10.12661,-3.36015 11.93945,-8.392584 a 0.5,0.5 0 0 0 -0.30078,-0.64062 0.5,0.5 0 0 0 -0.64063,0.30078 c -1.67117,4.639164 -6.06703,7.730504 -10.99804,7.732424 -4.931,-0.002 -9.32688,-3.09326 -10.99805,-7.732424 a 0.5,0.5 0 0 0 -0.64063,-0.30078 z"
       id="circle914" /><path
       d="m 247.44437,81.963676 -0.43396,-2.170958 0.8989,-1.028484 0.40661,2.596812 2.90187,0.0849 -0.94348,1.07949 -2.33694,-0.1309 1.38975,1.21464 -0.72805,0.833 -3.20447,-2.80074 0.72804,-0.832997 z"
       style="font-weight:bold;font-size:5.64444px;line-height:1.25;font-family:Futura;-inkscape-font-specification:Futura;fill:#333333;stroke-width:0.264583"
       id="path1955" /><path
       d="m 251.42645,78.285649 1.42855,-0.714747 -0.73495,-1.468931 0.98939,-0.495018 1.9043,3.806096 -0.98938,0.495019 -0.78546,-1.569889 -1.42856,0.714747 0.78547,1.569889 -0.98939,0.495021 -1.9043,-3.806099 0.98938,-0.495019 z"
       style="font-weight:bold;font-size:5.64444px;line-height:1.25;font-family:Futura;-inkscape-font-specification:Futura;fill:#333333;stroke-width:0.264583"
       id="path1957" /><path
       d="m 258.0769,76.907209 -0.73524,-1.308943 -0.24308,1.481496 z m 0.43513,0.777256 -1.55642,0.274515 -0.1217,0.772301 -1.16176,0.204906 0.85611,-4.472595 1.18954,-0.209808 2.33456,3.909839 -1.16176,0.204906 z"
       style="font-weight:bold;font-size:5.64444px;line-height:1.25;font-family:Futura;-inkscape-font-specification:Futura;fill:#333333;stroke-width:0.264583"
       id="path1959" /><path
       d="m 260.51551,78.259565 0.70342,-4.197375 1.09109,0.18285 1.58512,2.904013 0.43007,-2.5663 1.08553,0.181918 -0.70342,4.197375 -1.08552,-0.181917 -1.58513,-2.904014 -0.43007,2.5663 z"
       style="font-weight:bold;font-size:5.64444px;line-height:1.25;font-family:Futura;-inkscape-font-specification:Futura;fill:#333333;stroke-width:0.264583"
       id="path1961" /><path
       d="m 267.57091,77.391572 1.41995,0.731715 0.75239,-1.460073 0.98342,0.506768 -1.94951,3.783154 -0.98341,-0.506778 0.80411,-1.560423 -1.41995,-0.731712 -0.8041,1.560421 -0.98342,-0.506768 1.94951,-3.783144 0.98341,0.506768 z"
       style="font-weight:bold;font-size:5.64444px;line-height:1.25;font-family:Futura;-inkscape-font-specification:Futura;fill:#333333;stroke-width:0.264583"
       id="path1963" /><path
       d="m 271.02157,78.558775 -0.27628,-0.537054 1.45112,-0.917881 0.4157,0.808092 z"
       style="font-weight:bold;font-size:5.64444px;line-height:1.25;font-family:Futura;-inkscape-font-specification:Futura;fill:#333333;stroke-width:0.264583"
       id="path1965"
       inkscape:transform-center-x="0.4047476"
       inkscape:transform-center-y="-0.8094952" /><path
       d="m 273.68765,81.175306 q -0.0178,-0.23204 -0.0929,-0.409715 -0.071,-0.181552 -0.18754,-0.304435 -0.14758,-0.155639 -0.31451,-0.184037 -0.16694,-0.0284 -0.28572,0.08423 -0.0819,0.07767 -0.0886,0.177289 -0.007,0.09962 0.0262,0.216293 0.0408,0.11687 0.10535,0.242355 0.0684,0.12959 0.12886,0.25896 0.24176,0.51749 0.19147,0.90743 -0.0423,0.39015 -0.39457,0.72415 -0.23756,0.22525 -0.50775,0.32587 -0.2663,0.1047 -0.55314,0.0811 -0.27886,-0.0234 -0.56619,-0.17876 -0.28754,-0.14739 -0.55552,-0.43001 -0.55536,-0.58572 -0.68103,-1.41553 l 0.9734,-0.26957 q 0.0111,0.33169 0.10031,0.5816 0.0892,0.24992 0.25229,0.42195 0.18641,0.1966 0.36586,0.20537 0.18331,0.0129 0.29799,-0.0959 0.0697,-0.0661 0.0955,-0.13723 0.0299,-0.0751 0.0165,-0.17124 -0.009,-0.10005 -0.0618,-0.22923 -0.0486,-0.12505 -0.1278,-0.29885 -0.0984,-0.20222 -0.18478,-0.408165 -0.0784,-0.20574 -0.0927,-0.417701 -0.0104,-0.207894 0.0671,-0.421431 0.0855,-0.21336 0.31487,-0.430847 0.22937,-0.217487 0.48359,-0.318526 0.26221,-0.100823 0.52144,-0.08994 0.26721,0.0111 0.52736,0.137803 0.26402,0.130788 0.49704,0.376546 0.21749,0.229373 0.38886,0.541363 0.17546,0.308109 0.27008,0.653993 z"
       style="font-weight:bold;font-size:5.64444px;line-height:1.25;font-family:Futura;-inkscape-font-specification:Futura;fill:#333333;stroke-width:0.264583"
       id="path1967" /><path
       d="m 250.0895,104.24892 1.37741,1.7099 q -0.26373,0.21245 -0.49681,0.364 -0.23308,0.15155 -0.47082,0.23431 -0.33371,0.11661 -0.66337,0.12125 -0.32528,10e-4 -0.63505,-0.10452 -0.30183,-0.10477 -0.57754,-0.30306 -0.27569,-0.1983 -0.50231,-0.47962 -0.3116,-0.38682 -0.44261,-0.81039 -0.12748,-0.41917 -0.083,-0.83187 0.0488,-0.41624 0.26704,-0.80221 0.22258,-0.38949 0.6138,-0.70464 0.38681,-0.3116 0.80684,-0.447 0.42797,-0.13455 0.84067,-0.0901 0.41623,0.0488 0.80574,0.27143 0.3895,0.22259 0.71172,0.62259 0.41783,0.51869 0.5088,1.09048 0.091,0.57181 -0.19525,1.17926 l -0.99708,-0.54494 q 0.18048,-0.33382 0.15044,-0.61405 -0.0265,-0.27582 -0.21417,-0.50879 -0.15579,-0.19341 -0.35803,-0.29143 -0.19779,-0.10159 -0.42613,-0.10611 -0.22039,-0.004 -0.46251,0.0827 -0.23857,0.0907 -0.47155,0.2784 -0.21098,0.16997 -0.34873,0.36786 -0.13418,0.20234 -0.17755,0.41844 -0.0433,0.21612 0.013,0.43896 0.0607,0.21928 0.23419,0.43467 0.10269,0.12747 0.22469,0.22489 0.12637,0.0939 0.26227,0.13663 0.14386,0.0436 0.29451,0.0237 0.15066,-0.0199 0.31344,-0.11477 l -0.57009,-0.70771 z"
       style="font-weight:bold;font-size:5.64444px;line-height:1.25;font-family:Futura;-inkscape-font-specification:'Futura Bold';fill:#333333;stroke-width:0.264583"
       id="path1977" /><path
       d="m 254.22897,107.46744 0.0812,-1.49912 -0.99954,1.12021 z m -0.0495,0.88938 -1.46096,-0.60281 -0.51683,0.58664 -1.0905,-0.44995 3.12076,-3.31629 1.1166,0.46071 -0.12578,4.55206 -1.09052,-0.44995 z"
       style="font-weight:bold;font-size:5.64444px;line-height:1.25;font-family:Futura;-inkscape-font-specification:'Futura Bold';fill:#333333;stroke-width:0.264583"
       id="path1979" /><path
       d="m 258.19093,107.72155 0.20736,0.0248 q 0.32505,0.0389 0.5149,-0.0748 0.18985,-0.11369 0.22007,-0.36589 0.0302,-0.2522 -0.12741,-0.40751 -0.15763,-0.15532 -0.48267,-0.19426 l -0.20737,-0.0249 z m 2.1355,2.6264 -1.36747,-0.16383 -0.8533,-1.75082 -0.19472,1.62527 -1.09845,-0.1316 0.50625,-4.22569 1.70934,0.20478 q 0.35307,0.0423 0.60371,0.18035 0.25132,0.13243 0.39798,0.33191 0.15224,0.20015 0.20811,0.44561 0.0615,0.24612 0.0292,0.51514 -0.0578,0.48197 -0.32938,0.75641 -0.26537,0.26949 -0.73208,0.3216 z"
       style="font-weight:bold;font-size:5.64444px;line-height:1.25;font-family:Futura;-inkscape-font-specification:'Futura Bold';fill:#333333;stroke-width:0.264583"
       id="path1981" /><path
       d="m 264.01354,108.36835 -0.84396,-1.24164 -0.11613,1.49682 z m 0.49969,0.73741 -1.52741,0.40596 -0.0555,0.77985 -1.14011,0.30302 0.47241,-4.52922 1.16739,-0.31026 2.65878,3.697 -1.1401,0.30302 z"
       style="font-weight:bold;font-size:5.64444px;line-height:1.25;font-family:Futura;-inkscape-font-specification:'Futura Bold';fill:#333333;stroke-width:0.264583"
       id="path1983" /><path
       d="m 268.27565,106.12906 1.70683,-1.38122 q 0.21304,0.26326 0.3651,0.496 0.15207,0.23274 0.23536,0.47029 0.11735,0.33345 0.12272,0.66311 0.002,0.32527 -0.1031,0.63528 -0.10409,0.30206 -0.30177,0.5782 -0.19768,0.27614 -0.4785,0.50339 -0.38612,0.31246 -0.8094,0.44441 -0.41888,0.12841 -0.83168,0.0849 -0.41635,-0.0479 -0.8028,-0.26524 -0.38999,-0.22172 -0.706,-0.61223 -0.31247,-0.38612 -0.44881,-0.80584 -0.13551,-0.42766 -0.092,-0.84046 0.0479,-0.41635 0.26964,-0.80635 0.22172,-0.39 0.621,-0.71311 0.51775,-0.41898 1.08934,-0.51123 0.5716,-0.0922 1.17969,0.19262 l -0.54272,0.99829 q -0.33423,-0.17973 -0.61438,-0.14907 -0.27576,0.0271 -0.50831,0.2153 -0.19307,0.15623 -0.29064,0.35869 -0.10114,0.19801 -0.10515,0.42636 -0.003,0.2204 0.0837,0.46233 0.0913,0.23837 0.27946,0.47092 0.17043,0.21061 0.36863,0.34792 0.20264,0.13372 0.41884,0.1766 0.21621,0.0429 0.43893,-0.0139 0.21915,-0.0612 0.43415,-0.23516 0.12724,-0.10297 0.22439,-0.22519 0.0936,-0.12658 0.13604,-0.26258 0.0433,-0.14395 0.023,-0.29456 -0.0203,-0.15061 -0.11547,-0.31317 l -0.70642,0.57166 z"
       style="font-weight:bold;font-size:5.64444px;line-height:1.25;font-family:Futura;-inkscape-font-specification:'Futura Bold';fill:#333333;stroke-width:0.264583"
       id="path1985" /><path
       d="m 272.32947,101.41213 -0.89634,0.96241 0.52044,0.48471 0.84633,-0.9087 0.68565,0.63859 -0.84633,0.9087 0.53696,0.5001 0.89634,-0.9624 0.68566,0.6386 -1.65034,1.77197 -3.11437,-2.9006 1.65034,-1.77197 z"
       style="font-weight:bold;font-size:5.64444px;line-height:1.25;font-family:Futura;-inkscape-font-specification:'Futura Bold';fill:#333333;stroke-width:0.264583"
       id="path1987" /><path
       d="m 258.78807,75.127034 -0.53183,-0.286198 0.67626,-1.578266 0.80023,0.430641 z"
       style="font-weight:bold;font-size:5.64444px;line-height:1.25;font-family:Futura;-inkscape-font-specification:Futura;fill:#333333;stroke-width:0.264583"
       id="path1996"
       inkscape:transform-center-x="0.7152526"
       inkscape:transform-center-y="-0.3985247" /><g
       aria-label="EST. 2022"
       id="text2000"
       style="font-size:2.11667px;line-height:1.25;fill:#333333;stroke-width:0.264583"
       transform="translate(140.88047,-19.077564)"><path
         d="m 114.67798,120.32568 h -0.0486 q -0.0372,0 -0.0568,-0.0186 -0.0186,-0.0186 -0.0186,-0.0558 0,-0.0413 0.0217,-0.0558 0.0227,-0.0155 0.10231,-0.0155 h 0.0661 v -0.93121 h -0.0661 q -0.0775,0 -0.10128,-0.0155 -0.0227,-0.0165 -0.0227,-0.0589 0,-0.0382 0.0186,-0.0558 0.0196,-0.0186 0.0589,-0.0186 h 0.0465 0.8537 q 0.0351,0 0.0527,0.0217 0.0186,0.0207 0.0186,0.061 v 0.24391 q 0,0.0538 -0.0155,0.0744 -0.0155,0.0207 -0.0558,0.0207 -0.0424,0 -0.0589,-0.0227 -0.0155,-0.0227 -0.0155,-0.10232 v -0.14779 h -0.54984 v 0.34829 h 0.27078 v -0.0548 q 0,-0.0558 0.0145,-0.0775 0.0155,-0.0217 0.0527,-0.0217 0.0362,0 0.0496,0.0238 0.0145,0.0227 0.0145,0.0992 v 0.19224 q 0,0.0775 -0.0145,0.0992 -0.0145,0.0217 -0.0517,0.0217 -0.0372,0 -0.0517,-0.0248 -0.0134,-0.0248 -0.0134,-0.0961 v -0.0362 h -0.27078 v 0.45786 h 0.54984 v -0.16744 q 0,-0.0796 0.0155,-0.10232 0.0165,-0.0227 0.0589,-0.0227 0.0393,0 0.0548,0.0217 0.0165,0.0207 0.0165,0.0796 v 0.26045 q 0,0.0372 -0.0186,0.0568 -0.0186,0.0196 -0.0527,0.0196 z"
         style="font-family:Courier;-inkscape-font-specification:Courier;fill:#333333"
         id="path8137" /><path
         d="m 116.08875,120.28951 q -0.005,0.0465 -0.0238,0.0641 -0.0186,0.0186 -0.0589,0.0186 -0.0434,0 -0.0651,-0.0258 -0.0207,-0.0248 -0.0238,-0.0816 l -0.0134,-0.23978 v -0.0186 q 0,-0.0496 0.0186,-0.0703 0.0196,-0.0207 0.0641,-0.0207 0.062,0 0.0889,0.0889 0.0124,0.0444 0.0238,0.0672 0.0362,0.0723 0.11369,0.11162 0.0786,0.0393 0.18707,0.0393 0.13332,0 0.216,-0.063 0.0837,-0.0631 0.0837,-0.16124 0,-0.0816 -0.0517,-0.13125 -0.0506,-0.0496 -0.14882,-0.0641 l -0.15297,-0.0207 q -0.21394,-0.03 -0.31212,-0.11266 -0.0982,-0.0827 -0.0982,-0.23254 0,-0.15813 0.13023,-0.26562 0.13125,-0.10749 0.32659,-0.10749 0.0568,0 0.11989,0.0155 0.0631,0.0145 0.14263,0.0465 0.002,-0.03 0.0165,-0.0413 0.0145,-0.0114 0.0496,-0.0114 0.0455,0 0.063,0.0134 0.0176,0.0134 0.0217,0.0641 l 0.0145,0.21601 v 0.0103 q 0,0.0362 -0.0207,0.0568 -0.0207,0.0196 -0.0579,0.0196 -0.0548,0 -0.0847,-0.0765 -0.0145,-0.0434 -0.0289,-0.0651 -0.0341,-0.0517 -0.0982,-0.0796 -0.0641,-0.0279 -0.14573,-0.0279 -0.12505,0 -0.2036,0.062 -0.0775,0.062 -0.0775,0.16226 0,0.0786 0.0579,0.12402 0.0589,0.0455 0.1788,0.062 l 0.16537,0.0207 q 0.17983,0.0238 0.27078,0.11058 0.091,0.0858 0.091,0.23255 0,0.17363 -0.12919,0.27905 -0.12919,0.10439 -0.3452,0.10439 -0.0744,0 -0.14779,-0.0176 -0.0734,-0.0176 -0.15607,-0.0548 z"
         style="font-family:Courier;-inkscape-font-specification:Courier;fill:#333333"
         id="path8139" /><path
         d="m 117.27421,119.51746 q -0.002,0.0775 -0.0186,0.0992 -0.0155,0.0207 -0.062,0.0207 -0.0362,0 -0.0548,-0.0186 -0.0176,-0.0196 -0.0176,-0.0569 0,0 10e-4,-0.0155 0.001,-0.0165 0.001,-0.0331 l 0.0103,-0.34107 q 0.002,-0.0382 0.0207,-0.0548 0.0186,-0.0176 0.0579,-0.0176 h 0.89814 q 0.0393,0 0.0579,0.0176 0.0186,0.0165 0.0196,0.0548 l 0.0114,0.34107 q 0,0.0186 10e-4,0.0351 0.001,0.0165 0.001,0.0155 0,0.0372 -0.0196,0.0558 -0.0196,0.0176 -0.0589,0.0176 -0.0413,0 -0.0568,-0.0207 -0.0155,-0.0217 -0.0176,-0.0992 l -0.0103,-0.26871 h -0.29662 v 0.93121 h 0.15916 0.0403 q 0.0434,0 0.0631,0.0176 0.0196,0.0165 0.0196,0.0537 0,0.0362 -0.0186,0.0558 -0.0186,0.0186 -0.0537,0.0186 h -0.57982 q -0.0351,0 -0.0537,-0.0186 -0.0186,-0.0196 -0.0186,-0.0558 0,-0.0382 0.0196,-0.0548 0.0207,-0.0165 0.0692,-0.0165 h 0.0341 0.15916 v -0.93121 h -0.29662 z"
         style="font-family:Courier;-inkscape-font-specification:Courier;fill:#333333"
         id="path8141" /><path
         d="m 118.72839,120.15618 q 0,-0.0806 0.0558,-0.13229 0.0568,-0.0517 0.14676,-0.0517 0.092,0 0.1478,0.0506 0.0558,0.0506 0.0558,0.13332 0,0.0827 -0.0568,0.13333 -0.0558,0.0506 -0.14676,0.0506 -0.0909,0 -0.14676,-0.0506 -0.0558,-0.0506 -0.0558,-0.13333 z"
         style="font-family:Courier;-inkscape-font-specification:Courier;fill:#333333"
         id="path8143" /><path
         d="m 121.11171,120.32568 q -0.0548,0 -0.0816,-0.0217 -0.0258,-0.0227 -0.0258,-0.0692 0,-0.0672 0.19844,-0.25218 l 0.03,-0.0289 q 0.03,-0.0289 0.0868,-0.0827 0.3576,-0.33693 0.3576,-0.49093 0,-0.11058 -0.063,-0.1788 -0.063,-0.0692 -0.1633,-0.0692 -0.0651,0 -0.12506,0.0269 -0.0589,0.0269 -0.0951,0.0724 -0.006,0.008 -0.0196,0.0279 -0.0382,0.0692 -0.0858,0.0692 -0.0372,0 -0.0527,-0.0227 -0.0155,-0.0227 -0.0155,-0.0868 0,-0.0372 0.007,-0.0537 0.007,-0.0176 0.0269,-0.0372 0.0661,-0.0641 0.1633,-0.10128 0.0982,-0.0382 0.2005,-0.0382 0.17157,0 0.28629,0.11058 0.11576,0.11059 0.11576,0.27182 0,0.20257 -0.3514,0.53847 -0.0899,0.0837 -0.13746,0.13126 l -0.12713,0.12196 h 0.47232 q 0.004,-0.0444 0.0238,-0.0672 0.0207,-0.0238 0.0548,-0.0238 0.0341,0 0.0537,0.0227 0.0196,0.0227 0.0196,0.062 0,0.003 -0.001,0.0114 -0.001,0.007 -0.001,0.0103 l -0.008,0.0796 q -0.003,0.032 -0.0186,0.0506 -0.0155,0.0176 -0.0403,0.0176 z"
         style="font-family:Courier;-inkscape-font-specification:Courier;fill:#333333"
         id="path8145" /><path
         d="m 122.74159,119.13609 q -0.11886,0 -0.185,0.14056 -0.0661,0.14056 -0.0661,0.39688 0,0.25735 0.0661,0.39894 0.0661,0.14056 0.185,0.14056 0.11989,0 0.18603,-0.14056 0.0661,-0.14159 0.0661,-0.39894 0,-0.25632 -0.0661,-0.39688 -0.0661,-0.14056 -0.18603,-0.14056 z m 0,1.2237 q -0.19431,0 -0.30903,-0.18293 -0.11369,-0.18397 -0.11369,-0.50333 0,-0.31833 0.11369,-0.50127 0.11472,-0.18396 0.30903,-0.18396 0.1943,0 0.30902,0.18396 0.11472,0.18397 0.11472,0.50127 0,0.31729 -0.11472,0.50229 -0.11472,0.18397 -0.30902,0.18397 z"
         style="font-family:Courier;-inkscape-font-specification:Courier;fill:#333333"
         id="path8147" /><path
         d="m 123.65213,120.32568 q -0.0548,0 -0.0816,-0.0217 -0.0258,-0.0227 -0.0258,-0.0692 0,-0.0672 0.19844,-0.25218 l 0.03,-0.0289 q 0.03,-0.0289 0.0868,-0.0827 0.3576,-0.33693 0.3576,-0.49093 0,-0.11058 -0.0631,-0.1788 -0.063,-0.0692 -0.16329,-0.0692 -0.0651,0 -0.12506,0.0269 -0.0589,0.0269 -0.0951,0.0724 -0.006,0.008 -0.0196,0.0279 -0.0382,0.0692 -0.0858,0.0692 -0.0372,0 -0.0527,-0.0227 -0.0155,-0.0227 -0.0155,-0.0868 0,-0.0372 0.007,-0.0537 0.007,-0.0176 0.0269,-0.0372 0.0661,-0.0641 0.16329,-0.10128 0.0982,-0.0382 0.20051,-0.0382 0.17157,0 0.28629,0.11058 0.11575,0.11059 0.11575,0.27182 0,0.20257 -0.3514,0.53847 -0.0899,0.0837 -0.13746,0.13126 l -0.12712,0.12196 h 0.47232 q 0.004,-0.0444 0.0238,-0.0672 0.0207,-0.0238 0.0548,-0.0238 0.0341,0 0.0537,0.0227 0.0196,0.0227 0.0196,0.062 0,0.003 -0.001,0.0114 -10e-4,0.007 -10e-4,0.0103 l -0.008,0.0796 q -0.003,0.032 -0.0186,0.0506 -0.0155,0.0176 -0.0403,0.0176 z"
         style="font-family:Courier;-inkscape-font-specification:Courier;fill:#333333"
         id="path8149" /><path
         d="m 124.92234,120.32568 q -0.0548,0 -0.0817,-0.0217 -0.0258,-0.0227 -0.0258,-0.0692 0,-0.0672 0.19844,-0.25218 l 0.03,-0.0289 q 0.03,-0.0289 0.0868,-0.0827 0.3576,-0.33693 0.3576,-0.49093 0,-0.11058 -0.0631,-0.1788 -0.063,-0.0692 -0.1633,-0.0692 -0.0651,0 -0.12505,0.0269 -0.0589,0.0269 -0.0951,0.0724 -0.006,0.008 -0.0196,0.0279 -0.0382,0.0692 -0.0858,0.0692 -0.0372,0 -0.0527,-0.0227 -0.0155,-0.0227 -0.0155,-0.0868 0,-0.0372 0.007,-0.0537 0.007,-0.0176 0.0269,-0.0372 0.0661,-0.0641 0.16329,-0.10128 0.0982,-0.0382 0.20051,-0.0382 0.17156,0 0.28629,0.11058 0.11575,0.11059 0.11575,0.27182 0,0.20257 -0.3514,0.53847 -0.0899,0.0837 -0.13746,0.13126 l -0.12712,0.12196 h 0.47232 q 0.004,-0.0444 0.0238,-0.0672 0.0207,-0.0238 0.0548,-0.0238 0.0341,0 0.0537,0.0227 0.0196,0.0227 0.0196,0.062 0,0.003 -0.001,0.0114 -0.001,0.007 -0.001,0.0103 l -0.008,0.0796 q -0.003,0.032 -0.0186,0.0506 -0.0155,0.0176 -0.0403,0.0176 z"
         style="font-family:Courier;-inkscape-font-specification:Courier;fill:#333333"
         id="path8151" /></g><path
       style="fill:#333333;stroke-width:0.0292969"
       d="m 257.06158,97.257696 c -0.12358,-0.0672 -0.15074,-0.17794 -0.13804,-0.56292 0.01,-0.30144 0.0218,-0.36804 0.0932,-0.52431 0.10245,-0.22426 0.30207,-0.42308 0.53155,-0.52943 0.16507,-0.0765 0.20478,-0.0821 0.65186,-0.0924 l 0.47607,-0.0109 v -0.49504 -0.49504 l -2.39502,-3.4e-4 c -2.55239,-3.8e-4 -2.53301,6.2e-4 -2.81656,-0.14434 -0.19262,-0.0985 -0.40389,-0.32675 -0.5103,-0.55139 l -0.0936,-0.19742 v -4.32129 -4.32129 l 0.0936,-0.19748 c 0.12108,-0.2556 0.33228,-0.4668 0.58787,-0.58788 l 0.19749,-0.0936 3.53759,-0.008 3.5376,-0.008 v -0.0791 c 0,-0.0636 0.10611,-0.18522 0.53971,-0.61883 l 0.53971,-0.53971 0.12384,0.0166 c 0.10295,0.0138 0.15647,0.0488 0.31723,0.20733 l 0.19338,0.19072 0.0879,-0.0474 c 0.0483,-0.0261 0.18018,-0.0817 0.29297,-0.12355 l 0.20508,-0.0761 0.0147,-0.29867 c 0.0224,-0.45613 -0.0287,-0.43185 0.9082,-0.43185 0.93591,0 0.88576,-0.0236 0.9082,0.42777 l 0.0146,0.29458 0.20508,0.0802 c 0.11279,0.0441 0.24463,0.10156 0.29297,0.12764 l 0.0879,0.0474 0.19338,-0.19072 c 0.16025,-0.15804 0.21445,-0.19354 0.31635,-0.20721 l 0.12297,-0.0165 0.52714,0.52407 c 0.28993,0.28824 0.53462,0.55373 0.54376,0.58998 0.0301,0.11943 -0.0201,0.21919 -0.20867,0.41479 l -0.1862,0.19312 0.0468,0.0879 c 0.0258,0.0483 0.0829,0.18017 0.12703,0.29296 l 0.0802,0.20508 0.29458,0.0146 c 0.4514,0.0224 0.42778,-0.0277 0.42778,0.9082 0,0.93628 0.0239,0.88579 -0.42928,0.90821 l -0.29609,0.0147 -0.0791,0.20507 c -0.0435,0.1128 -0.10036,0.24582 -0.12637,0.29562 l -0.0473,0.0905 0.16172,0.15848 c 0.29618,0.29025 0.3133,0.3975 0.0996,0.62351 l -0.14555,0.15389 -0.008,2.53234 c -0.008,2.34607 -0.0121,2.54204 -0.0603,2.66418 -0.1276,0.32305 -0.38291,0.58213 -0.70322,0.7136 -0.15153,0.0622 -0.17503,0.0628 -2.60652,0.0709 l -2.45361,0.008 v 0.49423 0.49424 l 0.47607,0.0109 c 0.44084,0.0101 0.48838,0.0166 0.64234,0.0883 0.23158,0.10779 0.41653,0.28833 0.52861,0.516 0.0883,0.17945 0.095,0.21518 0.10599,0.56704 l 0.0117,0.37552 -0.10306,0.10305 -0.10306,0.10306 -2.77881,-0.001 c -2.343,-9.9e-4 -2.79081,-0.008 -2.85533,-0.0428 z m 5.24092,-0.68726 c -0.0166,-0.17289 -0.11842,-0.32198 -0.26849,-0.3932 -0.093,-0.0441 -0.29367,-0.0479 -2.16748,-0.0407 -2.03367,0.008 -2.0662,0.009 -2.14587,0.0683 -0.13332,0.0996 -0.19442,0.2052 -0.20951,0.36222 l -0.0143,0.14866 h 2.4098 2.4098 z m -1.75131,-1.52467 v -0.49805 h -0.64453 -0.64453 v 0.49805 0.49805 h 0.64453 0.64453 z m 5.49474,-1.15673 c 0.15318,-0.0769 0.25972,-0.20518 0.30684,-0.36949 0.0309,-0.10774 0.0414,-4.33315 0.0108,-4.33315 -0.01,0 -0.0569,0.0329 -0.10478,0.0732 -0.15636,0.13156 -0.29277,0.0893 -0.54618,-0.16935 l -0.156,-0.15921 -0.2395,0.1003 c -0.13173,0.0552 -0.26917,0.11233 -0.30542,0.12703 -0.0618,0.0251 -0.0659,0.0439 -0.0659,0.30404 0,0.25092 -0.007,0.28515 -0.0707,0.35952 l -0.0707,0.0822 h -0.7668 -0.76679 l -0.0707,-0.0822 c -0.064,-0.0744 -0.0707,-0.1086 -0.0707,-0.35952 0,-0.26002 -0.004,-0.279 -0.0659,-0.30442 -0.0362,-0.0149 -0.17263,-0.0721 -0.30305,-0.12699 l -0.23714,-0.0999 -0.18988,0.18438 c -0.19226,0.18668 -0.29295,0.23722 -0.41251,0.20709 -0.0362,-0.009 -0.30174,-0.25384 -0.58998,-0.54376 l -0.52407,-0.52715 0.0166,-0.12352 c 0.0138,-0.10279 0.0482,-0.15511 0.20475,-0.3117 l 0.18817,-0.18817 -0.10009,-0.23903 c -0.0551,-0.13146 -0.11213,-0.26869 -0.12683,-0.30495 -0.0251,-0.0618 -0.0439,-0.0659 -0.30404,-0.0659 -0.25092,0 -0.28515,-0.007 -0.35952,-0.0707 l -0.0822,-0.0707 v -0.76345 c 0,-0.94051 -0.0243,-0.88915 0.43079,-0.91155 l 0.2976,-0.0146 0.0943,-0.2417 0.0943,-0.2417 h -3.6399 -3.6399 l -0.12912,0.0682 c -0.071,0.0375 -0.16867,0.12432 -0.21701,0.19295 l -0.0879,0.12477 -0.008,2.80999 -0.008,2.80998 h 1.14447 c 1.21933,0 1.27123,0.006 1.34577,0.14486 0.0387,0.0724 0.0387,0.22384 0,0.29622 -0.0745,0.13927 -0.12647,0.14486 -1.34534,0.14486 h -1.14403 v 0.40993 0.40993 l 5.50715,0.008 5.50715,0.008 0.0806,0.0806 c 0.11987,0.11987 0.11377,0.29127 -0.0145,0.40583 l -0.095,0.0849 h -5.49482 -5.49481 l 0.009,0.43706 c 0.009,0.43166 0.0105,0.43859 0.0973,0.56171 0.0483,0.0686 0.146,0.15534 0.21701,0.19283 l 0.12912,0.0682 h 6.01015 6.01015 z m -6.28253,-0.349 c -0.26464,-0.14668 -0.14608,-0.54505 0.16222,-0.54505 0.111,0 0.27401,0.17428 0.27401,0.29297 0,0.0676 -0.0278,0.12158 -0.0996,0.19336 -0.10837,0.10836 -0.21385,0.12677 -0.33662,0.0587 z m 5.60294,-0.86707 c -0.21178,-0.0855 -0.20143,-0.43635 0.0155,-0.52622 0.19312,-0.08 0.39749,0.0573 0.39749,0.26695 0,0.20722 -0.21209,0.34035 -0.41301,0.25927 z m -8.67911,-1.41808 c -0.26465,-0.14669 -0.14608,-0.54506 0.16222,-0.54506 0.111,0 0.27401,0.17429 0.27401,0.29297 0,0.0676 -0.0278,0.12158 -0.0996,0.19336 -0.10837,0.10837 -0.21385,0.12677 -0.33662,0.0587 z m 0.25819,-0.95296 c -0.079,-0.079 -0.0856,-0.10217 -0.0857,-0.30029 l -8e-5,-0.21466 -0.15556,-0.0839 -0.15556,-0.0839 -0.16165,0.0912 c -0.18326,0.10342 -0.3387,0.11785 -0.43072,0.04 -0.10634,-0.09 -0.60184,-0.97908 -0.60201,-1.08018 -2.3e-4,-0.13159 0.0731,-0.22502 0.25875,-0.32981 l 0.16295,-0.092 v -0.17087 -0.17087 l -0.13955,-0.076 c -0.19572,-0.10652 -0.28232,-0.2068 -0.28232,-0.32688 0,-0.11872 0.4632,-0.9518 0.59974,-1.07864 0.11407,-0.10597 0.2031,-0.10199 0.42301,0.0189 l 0.18094,0.0994 0.15108,-0.0872 0.15109,-0.0872 6.5e-4,-0.20998 c 6.9e-4,-0.2222 0.0365,-0.30151 0.16588,-0.36769 0.0797,-0.0408 1.11633,-0.0448 1.22163,-0.005 0.11766,0.0447 0.17221,0.15895 0.18716,0.39192 l 0.0136,0.21135 0.13754,0.0768 0.13755,0.0768 0.17397,-0.0991 c 0.1879,-0.10703 0.27951,-0.12041 0.39325,-0.0575 0.0918,0.0508 0.6454,0.99646 0.64394,1.09997 -0.002,0.1222 -0.0734,0.21449 -0.25032,0.32239 l -0.16834,0.10265 -0.005,0.16928 -0.005,0.16928 0.15515,0.0888 c 0.20928,0.11974 0.28355,0.21749 0.2652,0.34905 -0.0167,0.11963 -0.48943,0.95053 -0.5959,1.04736 -0.10286,0.0936 -0.24388,0.0851 -0.44591,-0.0269 l -0.16748,-0.0928 -0.13807,0.0809 c -0.12928,0.0758 -0.13808,0.0887 -0.13838,0.20264 -5.6e-4,0.21169 -0.0343,0.33878 -0.11002,0.4145 l -0.0734,0.0734 h -0.61349 -0.61349 z m 0.90477,-0.66143 c 0.0105,-0.2064 0.0854,-0.30764 0.26808,-0.36237 0.0622,-0.0186 0.19336,-0.093 0.29159,-0.16533 0.21151,-0.15571 0.3331,-0.16963 0.51351,-0.0588 l 0.11534,0.0709 0.0971,-0.16113 c 0.0534,-0.0886 0.0971,-0.17065 0.0971,-0.1823 0,-0.0116 -0.0458,-0.0458 -0.10183,-0.076 -0.20032,-0.10788 -0.20536,-0.1226 -0.20988,-0.61341 -0.002,-0.24404 0.008,-0.46637 0.0225,-0.49406 0.0146,-0.0277 0.0857,-0.085 0.1579,-0.1273 0.0722,-0.0423 0.13129,-0.084 0.13129,-0.0926 0,-0.0256 -0.17889,-0.33038 -0.19392,-0.33038 -0.008,0 -0.0757,0.033 -0.15142,0.0733 -0.0757,0.0403 -0.16582,0.0732 -0.20033,0.0732 -0.0345,0 -0.14901,-0.0591 -0.25445,-0.13126 -0.10544,-0.0722 -0.26406,-0.16326 -0.35249,-0.20237 -0.19107,-0.0845 -0.22434,-0.13684 -0.22434,-0.35292 v -0.16306 h -0.20156 -0.20155 l -0.0126,0.17468 c -0.0154,0.21295 -0.0553,0.26221 -0.30841,0.38065 -0.10436,0.0488 -0.23988,0.1285 -0.30116,0.17703 -0.16204,0.12834 -0.25444,0.13779 -0.43796,0.0448 -0.0846,-0.0429 -0.15753,-0.0738 -0.162,-0.0687 -0.005,0.005 -0.0502,0.0844 -0.10154,0.17618 l -0.0934,0.16689 0.11178,0.057 c 0.21532,0.1099 0.22216,0.12845 0.22292,0.6052 4.6e-4,0.27976 -0.0115,0.44887 -0.0349,0.4926 -0.0196,0.0366 -0.0945,0.10216 -0.16652,0.14565 l -0.1309,0.0791 0.0879,0.15381 c 0.0483,0.0846 0.10161,0.15841 0.11843,0.16401 0.0168,0.006 0.0772,-0.0173 0.1343,-0.051 0.15392,-0.0908 0.30295,-0.0804 0.44058,0.0308 0.0626,0.0506 0.21052,0.1372 0.32861,0.19238 0.24217,0.11318 0.29798,0.19442 0.29798,0.43375 v 0.13411 l 0.19775,-0.009 0.19776,-0.009 z m -0.40672,-1.36005 c -0.15784,-0.15784 -0.0951,-0.4102 0.11792,-0.47401 0.29457,-0.0883 0.4953,0.28828 0.25947,0.48672 -0.12254,0.10311 -0.26641,0.0983 -0.37739,-0.0127 z m 6.94561,0.79797 c 0,-0.32274 0.0306,-0.36042 0.37836,-0.46542 0.13834,-0.0418 0.36178,-0.13419 0.49653,-0.20538 0.34085,-0.18006 0.40028,-0.17578 0.63066,0.0454 l 0.18212,0.17488 0.23903,-0.2408 0.23902,-0.24079 -0.17465,-0.18019 c -0.22243,-0.22948 -0.2243,-0.27536 -0.0272,-0.66835 0.0811,-0.16172 0.17316,-0.38633 0.20454,-0.49912 0.0819,-0.29425 0.1395,-0.33691 0.45526,-0.33691 h 0.24739 v -0.35157 -0.35156 h -0.24739 c -0.31971,0 -0.37328,-0.0411 -0.45797,-0.35156 -0.033,-0.12085 -0.12505,-0.34874 -0.20463,-0.50641 -0.19114,-0.3787 -0.18921,-0.4203 0.03,-0.64641 l 0.17465,-0.18019 -0.23902,-0.24079 -0.23903,-0.2408 -0.18212,0.17488 c -0.13941,0.13387 -0.20261,0.17488 -0.26953,0.17488 -0.0481,0 -0.21731,-0.0652 -0.37607,-0.1449 -0.15876,-0.0797 -0.38753,-0.17179 -0.50838,-0.20464 -0.31043,-0.0844 -0.35157,-0.13796 -0.35157,-0.45776 v -0.24739 h -0.35156 -0.35156 v 0.24739 c 0,0.31098 -0.0465,0.37804 -0.30762,0.44351 -0.0967,0.0242 -0.32202,0.11601 -0.50076,0.20393 -0.42574,0.20942 -0.4643,0.20859 -0.69717,-0.015 l -0.18211,-0.17488 -0.23903,0.2408 -0.23903,0.24079 0.17465,0.18019 c 0.22118,0.22818 0.2255,0.28825 0.0452,0.62949 -0.0712,0.13476 -0.16413,0.35993 -0.20655,0.50039 -0.10275,0.34023 -0.1461,0.3745 -0.47363,0.3745 h -0.24507 v 0.35156 0.35157 h 0.25446 c 0.32274,0 0.36042,0.0306 0.46542,0.37835 0.0418,0.13834 0.13419,0.36178 0.20537,0.49654 0.18007,0.34085 0.17579,0.40027 -0.0455,0.63065 l -0.17487,0.18212 0.24079,0.23903 0.2408,0.23903 0.18019,-0.17466 c 0.22818,-0.22118 0.28825,-0.2255 0.62949,-0.0452 0.13475,0.0712 0.35819,0.16361 0.49653,0.20538 0.34773,0.105 0.37836,0.14268 0.37836,0.46542 v 0.25446 h 0.35156 0.35156 z m -0.73242,-1.19735 c -0.67891,-0.14581 -1.24853,-0.72076 -1.39162,-1.40464 -0.16572,-0.79202 0.23389,-1.61894 0.95387,-1.97386 0.55489,-0.27354 1.08074,-0.27348 1.63892,1.7e-4 0.33925,0.16632 0.61854,0.44643 0.7881,0.79041 0.27269,0.55318 0.27244,1.08148 -7.6e-4,1.63569 -0.35635,0.72287 -1.19238,1.12322 -1.98851,0.95223 z m 0.68965,-0.58556 c 0.91311,-0.2363 1.22477,-1.38367 0.55718,-2.05125 -0.70499,-0.70499 -1.90596,-0.31553 -2.07528,0.67299 -0.14803,0.86415 0.6622,1.59974 1.5181,1.37826 z"
       id="path8608" /><path
       d="m -47.410007,111.66476 c 2.946218,-1.10943 3.149403,-0.51774 6.654392,2.2189 3.657375,3.32833 2.336646,2.81058 8.940252,-2.2189 6.248005,-4.43777 3.098602,-4.43777 11.07371,-0.29585 3.911361,1.99699 4.114547,2.51475 7.975108,4.43778 3.504989,1.997 2.336659,0.29585 8.3814937,4.73363 4.67330442,2.51473 9.3466232,5.32533 14.0199272,7.76609 L 20.7594,134.1495 24.26439,120.31842 c 0,0 -0.203201,0.2219 -11.124524,-5.62118 -4.0637481,-2.21888 -9.9053956,-5.54721 -14.01994254,-7.7661 -7.21314976,-4.65966 -5.23207656,-3.55023 -7.21314976,-4.43778 -3.6573747,-1.62718 -6.6035917,-3.328334 -10.3117667,-5.251364 -2.895418,-1.62718 -4.266933,-2.51475 -7.162365,-4.14193 -2.336645,-1.70115 -3.149403,-0.81358 -5.282877,0.8136 -2.743031,2.21888 -5.841633,5.02948 -7.568734,6.138914 -0.812745,-0.295854 0,0 -3.149404,-1.997004 -1.930273,-1.33133 -3.86056,-2.21888 -5.994034,-1.33133 l -5.841634,2.73663 c -3.352589,-2.21888 -6.451207,-4.14193 -9.752995,-7.17439 -9.905398,-8.653666 -10.108584,-9.467268 -11.4801,-9.467268 -1.574704,0 -2.94622,1.405301 -9.346627,7.470268 l -10.311764,8.65366 c 0.558764,2.440764 2.539843,10.206884 3.504984,14.126914 3.098609,-2.81058 5.028891,-3.92003 9.143437,-7.7661 7.975109,-7.248384 6.044829,-7.248384 8.94025,-4.73363 5.486058,4.73363 9.143433,7.76609 14.781896,11.90803 3.911361,2.8106 3.149404,2.8106 6.654392,0.88754 l 1.727087,-0.88754 z m -33.221161,31.28633 1.269921,5.10345 h 71.8267783 l 1.117544,-5.10345 z m 103.625629,20.04396 1.168329,-5.10345 h -81.935364 l 1.269929,5.10345 z m -62.37856,19.89602 1.219115,-5.1774 h -94.482186 l 1.32072,5.1774 z m 57.298868,0 1.219131,-5.02948 h -36.67535 l 1.015944,5.02948"
       style="fill:#333333;fill-opacity:1;fill-rule:nonzero;stroke:none;stroke-width:0.0612951"
       id="path3498"
       sodipodi:nodetypes="ccccccccccccccccccccscccccccccccccccccccccccccccc" /></g></svg>
