<?xml version="1.0" encoding="UTF-8" standalone="no"?>
<!-- Created with Inkscape (http://www.inkscape.org/) -->

<svg
   width="185mm"
   height="185mm"
   viewBox="0 0 185 185"
   version="1.1"
   id="svg5"
   xml:space="preserve"
   inkscape:version="1.2.1 (9c6d41e, 2022-07-14)"
   sodipodi:docname="logo_2025_both.svg"
   inkscape:export-filename="../../../../../Desktop/logo_both.png"
   inkscape:export-xdpi="103.471"
   inkscape:export-ydpi="103.471"
   xmlns:inkscape="http://www.inkscape.org/namespaces/inkscape"
   xmlns:sodipodi="http://sodipodi.sourceforge.net/DTD/sodipodi-0.dtd"
   xmlns="http://www.w3.org/2000/svg"
   xmlns:svg="http://www.w3.org/2000/svg"><sodipodi:namedview
     id="namedview7"
     pagecolor="#ffffff"
     bordercolor="#666666"
     borderopacity="1.0"
     inkscape:showpageshadow="2"
     inkscape:pageopacity="0.0"
     inkscape:pagecheckerboard="0"
     inkscape:deskcolor="#d1d1d1"
     inkscape:document-units="mm"
     showgrid="false"
     inkscape:zoom="1"
     inkscape:cx="286"
     inkscape:cy="475.5"
     inkscape:window-width="1680"
     inkscape:window-height="997"
     inkscape:window-x="0"
     inkscape:window-y="25"
     inkscape:window-maximized="1"
     inkscape:current-layer="layer1" /><defs
     id="defs2"><rect
       x="-749.83728"
       y="-74.24131"
       width="675.59595"
       height="402.75912"
       id="rect3650" /></defs><g
     inkscape:label="Layer 1"
     inkscape:groupmode="layer"
     id="layer1"
     transform="translate(110.88601,-39.481341)"><rect
       style="fill:#ffffff;stroke-width:23.2942;stroke-linecap:round;stroke-linejoin:round;stroke-miterlimit:7"
       id="rect417"
       width="185"
       height="185"
       x="-110.88601"
       y="39.481342" /><ellipse
       style="fill:#313131;stroke:#313131;stroke-width:10.0694;stroke-linecap:round;stroke-linejoin:round;stroke-miterlimit:7;stroke-dasharray:none;stroke-opacity:1;fill-opacity:1"
       id="ellipse1501"
       cx="-18.386009"
       cy="131.98134"
       rx="79.965302"
       ry="79.965317" /><path
       style="fill:#ffffff;stroke:#000000;stroke-width:0.265;stroke-linecap:butt;stroke-linejoin:round;stroke-opacity:1;stroke-dasharray:none;fill-opacity:1"
       d="m -95.540177,145.84384 41.275,-45.50833 18.520833,14.02291 15.08125,-1.5875 15.3458327,-3.70416 64.2937493,39.42291 -10.847917,31.22084 -27.252083,24.07708 -50.006249,11.1125 -36.5125,-15.34583 -28.310416,-32.27917 z"
       id="path1392" /><path
       d="m -27.771676,119.38755 c 2.867655,-1.16223 3.065422,-0.54238 6.476949,2.3245 3.559848,3.48672 2.274337,2.94434 8.701855,-2.3245 6.0813949,-4.64896 3.0159747,-4.64896 10.7784182,-0.30993 3.8070607,2.09203 4.0048295,2.63443 7.7624457,4.64897 3.4115258,2.09204 2.2743499,0.30993 8.1579971,4.95891 4.548691,2.63441 9.097393,5.57878 13.646081,8.13568 l 27.761216,16.7045 3.411527,-14.4893 c 0,0 -17.131116,-10.35088 -27.761216,-16.47203 -3.955386,-2.32448 -9.641262,-5.8112 -13.646093,-8.1357 -7.020811,-4.88141 -5.092563,-3.71919 -7.020811,-4.64898 -3.5598477,-1.70461 -6.4275022,-3.48674 -10.03679689,-5.50128 -2.81820861,-1.70462 -4.15315071,-2.63443 -6.97137321,-4.339047 -2.2743348,-1.782111 -3.0654202,-0.852297 -5.1420039,0.852307 -2.669885,2.32448 -5.685862,5.26884 -7.366909,6.43108 -0.791072,-0.30994 0,0 -3.065423,-2.09205 -1.878801,-1.39469 -3.757615,-2.32447 -5.8342,-1.39469 l -5.685862,2.86688 c -3.26319,-2.32448 -6.279182,-4.33906 -9.492926,-7.515824 -9.641264,-9.065505 -9.839033,-9.917827 -11.173976,-9.917827 -1.532714,0 -2.867658,1.472179 -9.097394,7.825783 l -33.849267,40.286318 c 0.543867,2.55693 2.472108,13.33849 3.411502,17.44507 3.015976,-2.94434 4.894785,-6.75241 8.899613,-10.78153 7.762448,-7.59335 29.696141,-38.81418 32.514354,-36.17973 5.339769,4.9589 8.899619,8.13568 14.387727,12.47474 3.807062,2.94436 3.065424,2.94436 6.476949,0.92978 l 1.681033,-0.92978 z"
       style="fill:#ffffff;fill-opacity:1;fill-rule:nonzero;stroke:none;stroke-width:2.01956;stroke-dasharray:none;stroke-opacity:1"
       id="path3498"
       sodipodi:nodetypes="ccccccccccccccccccccsccccccccc" /><path
       d="m -61.014064,149.78527 1.236059,5.34633 H 10.13346 l 1.08775,-5.34633 z"
       style="fill:#313131;fill-opacity:1;fill-rule:nonzero;stroke:none;stroke-width:2.01956;stroke-dasharray:none;stroke-opacity:1"
       id="path1511" /><path
       d="m 35.537486,173.91701 1.13717,-5.34633 h -79.750504 l 1.236066,5.34633 z"
       style="fill:#313131;fill-opacity:1;fill-rule:nonzero;stroke:none;stroke-width:2.01956;stroke-dasharray:none;stroke-opacity:1"
       id="path1534" /><path
       d="m -20.5839,194.06408 1.186607,-5.42381 -55.127577,3.3e-4 v 5.42348 z m 55.770963,0 1.18662,-5.26884 H 0.67629233 l 0.98885997,5.26884"
       style="fill:#313131;fill-opacity:1;fill-rule:nonzero;stroke:none;stroke-width:2.01956;stroke-dasharray:none;stroke-opacity:1"
       id="path1557" /><ellipse
       style="fill:none;stroke:#313131;stroke-width:10.0694;stroke-linecap:round;stroke-linejoin:round;stroke-miterlimit:7;stroke-dasharray:none;stroke-opacity:1"
       id="path487"
       cx="-18.386009"
       cy="131.98134"
       rx="79.965302"
       ry="79.965317" /></g></svg>
