<?xml version="1.0" encoding="UTF-8" standalone="no"?>
<!-- Created with Inkscape (http://www.inkscape.org/) -->

<svg
   width="1000mm"
   height="1000mm"
   viewBox="0 0 1000 1000"
   version="1.1"
   id="svg1"
   xml:space="preserve"
   inkscape:version="1.4 (e7c3feb1, 2024-10-09)"
   sodipodi:docname="ttc_dark.svg"
   xmlns:inkscape="http://www.inkscape.org/namespaces/inkscape"
   xmlns:sodipodi="http://sodipodi.sourceforge.net/DTD/sodipodi-0.dtd"
   xmlns="http://www.w3.org/2000/svg"
   xmlns:svg="http://www.w3.org/2000/svg"><sodipodi:namedview
     id="namedview1"
     pagecolor="#ffffff"
     bordercolor="#000000"
     borderopacity="0.25"
     inkscape:showpageshadow="2"
     inkscape:pageopacity="0.0"
     inkscape:pagecheckerboard="0"
     inkscape:deskcolor="#d1d1d1"
     inkscape:document-units="mm"
     inkscape:zoom="0.37584355"
     inkscape:cx="2518.3351"
     inkscape:cy="2663.3422"
     inkscape:window-width="3840"
     inkscape:window-height="2507"
     inkscape:window-x="1440"
     inkscape:window-y="25"
     inkscape:window-maximized="1"
     inkscape:current-layer="layer1" /><defs
     id="defs1" /><g
     inkscape:label="Layer 1"
     inkscape:groupmode="layer"
     id="layer1"><path
       style="fill:#f2f2f2"
       d="m -31.144272,1462.2515 -9.739961,-2.6227 -7.886993,-3.9962 -7.886992,-3.9962 -6.853133,-5.3924 -6.853133,-5.3923 -7.50031,-11.2318 -7.500311,-11.2318 -4.919395,-15.1358 -4.919395,-15.1358 -0.895495,-27.1017 -0.895496,-27.1016 3.063067,-15.5741 3.063066,-15.5741 6.597306,-13.5728 6.597305,-13.5728 10.071612,-10.0716 10.071612,-10.0717 11.092484,-5.5994 11.092485,-5.5995 10.60772,-2.763 10.607721,-2.7629 H 2.0875517 18.30561 l 9.832539,2.0681 9.832539,2.068 10.111754,4.7361 10.111753,4.7361 8.272273,8.5035 8.272272,8.5034 4.994504,10.5504 4.994505,10.5504 2.424787,11.4261 2.424786,11.4261 -2.609957,1.6523 -2.609958,1.6523 -19.018555,0.029 -19.018554,0.028 -1.38426,0.4638 -1.384259,0.4639 -4.724296,-8.7473 -4.724296,-8.7473 -4.56039,-4.944 -4.56039,-4.9439 -5.970678,-2.5441 -5.970679,-2.5441 H 0.86131383 -11.318424 l -6.898413,2.8772 -6.898412,2.8773 -6.034776,5.8407 -6.034775,5.8407 -3.926881,10.3006 -3.92688,10.3006 -0.959686,21.7459 -0.959687,21.7459 2.283519,11.6069 2.283519,11.6069 3.751469,7.4675 3.751468,7.4675 3.030886,3.4445 3.030886,3.4446 7.421875,3.8799 7.421875,3.8799 13.9160165,0.01 13.9160145,0.01 5.754841,-3.0608 5.754841,-3.0609 5.377972,-6.3148 5.377971,-6.3148 3.038411,-5.6273 3.03841,-5.6273 21.082683,0.9263 21.082684,0.9263 2.398547,2.253 2.398548,2.2531 -2.027183,9.0456 -2.027182,9.0457 -5.802564,10.8868 -5.802564,10.8867 -8.484817,7.5494 -8.484816,7.5493 -11.140853,5.2689 -11.140853,5.2689 -9.986423,1.8939 -9.986423,1.8939 -17.8375673,-0.1221 -17.8375687,-0.1221 z m 516.015452,-0.1646 -11.40029,-2.7041 -11.79307,-7.0494 -11.79308,-7.0495 -9.63712,-12.6749 -9.63713,-12.675 -3.84016,-10.3423 -3.84016,-10.3424 -2.72585,-12.9882 -2.72584,-12.9883 -0.0322,-20.7108 -0.0322,-20.7108 2.72027,-14.2176 2.72027,-14.2176 6.49782,-13.5095 6.49781,-13.5095 12.05154,-11.2736 12.05155,-11.2736 11.66494,-5.5358 11.66494,-5.5357 11.58378,-2.2524 11.58378,-2.2524 19.95919,0.9144 19.95919,0.9144 10.7289,4.1189 10.72889,4.1189 7.77224,5.9281 7.77224,5.9281 5.92808,7.7722 5.92808,7.7723 4.06504,10.7289 4.06504,10.7289 0.26551,9.2773 0.26551,9.2773 -20.41016,1.0293 -20.41015,1.0292 -2.40541,-0.7969 -2.40541,-0.7969 -4.43344,-8.749 -4.43343,-8.7489 -6.57363,-5.7718 -6.57364,-5.7717 -6.99767,-1.4192 -6.99768,-1.4192 -8.92334,0.2203 -8.92334,0.2204 -5.92041,2.3851 -5.92041,2.3852 -5.98446,4.4739 -5.98445,4.4738 -4.6317,9.556 -4.63171,9.5559 -2.13123,13.916 -2.13124,13.916 0.99764,15.7715 0.99764,15.7715 2.91911,9.4413 2.9191,9.4414 4.23613,6.286 4.23613,6.286 6.1013,4.1116 6.10131,4.1117 10.08989,2.258 10.0899,2.258 9.96335,-2.2297 9.96336,-2.2297 7.72759,-6.6145 7.7276,-6.6145 3.61958,-7.095 3.61959,-7.095 20.90138,1.0488 20.90137,1.0487 2.49663,1.9813 2.49662,1.9812 -1.19668,7.4837 -1.19669,7.4836 -4.76842,10.6255 -4.76843,10.6254 -10.85416,10.3532 -10.85416,10.3531 -9.79845,4.3201 -9.79844,4.3202 -9.83254,2.0972 -9.83254,2.0972 -17.99949,-0.1638 -17.9995,-0.1638 z m 218.78547,1.0758 -7.84919,-1.5492 -8.85003,-3.9006 -8.85003,-3.9006 -6.85822,-4.7352 -6.85823,-4.7352 -6.55523,-9.558 -6.55522,-9.558 -4.15836,-11.1328 -4.15835,-11.1328 -0.0551,-80.7129 -0.0552,-80.7129 h 23.19336 23.19336 l 1.03704,74.2187 1.03704,74.2188 2.40129,7.3348 2.40128,7.3348 5.90272,5.9027 5.90271,5.9027 10.60525,2.2017 10.60525,2.2016 10.60525,-2.2016 10.60525,-2.2017 5.91335,-5.9133 5.91334,-5.9134 2.96383,-9.9802 2.96383,-9.9803 v -69.8 -69.7999 l 2.22656,-2.2266 2.22656,-2.2265 h 20.90151 20.90152 l 2.051,3.8323 2.051,3.8323 -0.74556,74.5612 -0.74556,74.5613 -2.81264,9.2773 -2.81264,9.2774 -4.21766,8.3496 -4.21765,8.3496 -6.11487,7.5443 -6.11486,7.5443 -10.97563,5.85 -10.97562,5.8499 -10.90764,2.8411 -10.90764,2.8411 -17.70099,-0.2033 -17.70099,-0.2033 z m -555.26258,-1.3611 -19.45943,-0.5336 -1.46754,-1.4676 -1.46754,-1.4675 -0.41092,-107.0752 -0.41093,-107.0751 2.78321,-1.7595 2.7832,-1.7595 20.80874,-0.028 20.80874,-0.028 1.64347,3.247 1.64346,3.2471 -0.69024,105.7617 -0.69025,105.7617 -3.20727,1.8555 -3.20728,1.8555 z m 74.53807,-0.9093 -2.06134,-2.4838 -0.21088,-106.9918 -0.21089,-106.9917 1.1799,-1.9091 1.1799,-1.9091 44.88561,0.014 44.88562,0.014 12.06054,1.9388 12.06055,1.9389 9.60232,4.375 9.60233,4.3751 8.23721,7.5928 8.23721,7.5928 5.35382,11.5919 5.35383,11.592 v 24.1211 24.1211 l -4.8357,10.3103 -4.8357,10.3104 -7.22485,7.4517 -7.22484,7.4518 -4.3463,2.9429 -4.34629,2.9429 13.45404,25.6817 13.45405,25.6818 7.26948,12.6272 7.26948,12.6272 -2.22454,2.6804 -2.22454,2.6804 h -24.74848 -24.74849 l -2.09917,-2.3193 -2.09918,-2.3194 -18.20409,-35.2539 -18.20409,-35.2539 -14.0574,-0.5412 -14.05739,-0.5412 -0.50253,37.6506 -0.50253,37.6506 -21.52767,0.5204 -21.52766,0.5203 z m 93.51667,-120.1486 5.72422,-1.8829 5.20876,-5.4368 5.20876,-5.4367 0.92791,-9.657 0.92791,-9.657 -3.20255,-5.9468 -3.20255,-5.9467 -7.73001,-4.3445 -7.73,-4.3445 -21.80236,-0.7774 -21.80236,-0.7773 v 27.7515 27.7514 l 0.7707,0.7732 0.77069,0.7731 20.10333,-0.4794 20.10333,-0.4793 z m 543.85651,119.4796 -1.28972,-1.2897 v -106.9369 -106.9368 l 2.22657,-2.2266 2.22656,-2.2265 h 20.7396 20.73961 l 2.09784,2.5277 2.09784,2.5277 -0.47905,107.4088 -0.47904,107.4088 -23.29525,0.5166 -23.29525,0.5166 z m 141.01698,0 -1.2911,-1.2911 v -85.0423 -85.0424 h -28.38864 -28.38867 l -2.22657,-2.2265 -2.22656,-2.2266 v -19.8119 -19.8118 l 2.53343,-2.1026 2.53343,-2.1025 80.49878,0.4837 80.4988,0.4838 v 23.1933 23.1934 l -28.2774,0.5121 -28.2774,0.5121 -0.4824,85.7672 -0.4824,85.7672 -22.366,0.5181 -22.3661,0.518 z m -1178.20782,-270.8837 -1.30591,-1.3059 v -58.0752 -58.0753 l -19.94629,-0.5266 -19.94629,-0.5266 v -15.7715 -15.7715 h 55.66407 55.66406 l 0.53611,16.2353 0.5361,16.2354 h -19.5286 -19.52859 l -0.48993,58.9111 -0.48993,58.9112 -14.92945,0.5328 -14.92944,0.5328 z m 96.026022,-1.155 -0.891454,-2.3231 0.48582,-73.2872 0.48582,-73.2873 h 15.771485 15.771484 l 0.510983,29.2236 0.510983,29.2237 h 24.953385 24.9533849 l 0.5121948,-28.2959 0.5121949,-28.2959 16.2564624,-0.5364 16.256464,-0.5365 -0.484979,74.7552 -0.484979,74.7552 -13.623779,0.5486 -13.6237791,0.5486 -2.6115723,-2.1674 -2.6115724,-2.1674 v -28.5326 -28.5326 H -23.259781 -48.308609 v 29.489 29.489 l -2.934957,1.1262 -2.934957,1.1263 h -12.894761 -12.89476 z m 150.305025,0.031 -0.903511,-2.3545 0.485821,-73.2872 0.48582,-73.2873 h 48.242183 48.24219 v 15.7715 15.7715 l -32.00684,0.5076 -32.00684,0.5077 v 12.9445 12.9445 h 26.9043 26.9043 v 15.7714 15.7715 h -26.9043 -26.9043 v 13.8722 13.8722 l 32.00684,0.5077 32.00684,0.5077 v 15.7715 15.7715 l -47.8245,0.4952 -47.824493,0.4953 z m 215.680673,1.1236 -1.30591,-1.3059 v -58.138 -58.138 h -19.55466 -19.55466 l 0.53611,-16.2354 0.5361,-16.2353 h 54.73633 54.73633 l 0.5361,16.2353 0.53611,16.2354 h -19.5286 -19.52859 l -0.48993,58.9111 -0.48994,58.9112 -14.92944,0.5328 -14.92944,0.5328 z m 96.02601,-1.155 -0.89145,-2.3231 0.48582,-73.2872 0.48582,-73.2873 h 15.77149 15.77148 l 0.51098,29.2236 0.51099,29.2237 h 25.88233 25.88233 l 0.51098,-29.2237 0.51098,-29.2236 h 15.77149 15.77148 v 75.1465 75.1465 h -15.77148 -15.77149 l -0.50983,-30.1514 -0.50983,-30.1514 h -25.9306 -25.9306 v 29.489 29.489 l -2.93495,1.1262 -2.93496,1.1263 h -12.89476 -12.89476 z m 151.74209,0.1666 -2.29666,-2.2966 v -71.8827 -71.8827 l 2.1635,-1.3371 2.1635,-1.3371 10.2841,-0.7319 10.28409,-0.7318 4.27264,1.0723 4.27263,1.0724 -0.48488,74.642 -0.48488,74.642 -13.93868,0.5339 -13.93869,0.534 z m 66.56111,-0.3792 -2.10442,-2.5356 0.48563,-73.0747 0.48562,-73.0747 14.84375,-0.4746 14.84375,-0.4747 2.06096,1.4024 2.06096,1.4024 24.84334,40.7636 24.84334,40.7636 0.92773,-41.6914 0.92774,-41.6913 15.02198,-0.5343 15.02197,-0.5343 1.67724,2.3898 1.67724,2.3897 -0.92773,73.291 -0.92773,73.2911 h -14.83932 -14.83932 l -25.3909,-41.7481 -25.39091,-41.748 -1.51782,-2.4695 -1.51783,-2.4695 0.56921,40.4245 0.5692,40.4244 -1.06842,4.257 -1.06842,4.2569 h -14.58121 -14.58121 z m 152.38503,1.0331 -2.34118,-1.5266 0.48571,-73.168 0.48571,-73.168 13.91602,-1.1152 13.91601,-1.1152 2.27314,0.8321 2.27314,0.8321 0.51006,28.5382 0.51007,28.5383 23.10255,-29.7076 23.10256,-29.7075 18.4948,0.5246 18.4948,0.5247 0.67714,2.0432 0.67714,2.0432 -18.16588,23.0056 -18.16587,23.0057 -6.18635,7.9016 -6.18634,7.9017 24.52164,39.1039 24.52164,39.1039 0.23186,3.0921 0.23187,3.0921 -18.60145,0.5241 -18.60146,0.5242 -17.58018,-29.6344 -17.58019,-29.6344 -0.92773,-0.1134 -0.92774,-0.1133 -5.5664,6.958 -5.56641,6.9579 -0.92773,22.2656 -0.92774,22.2657 -13.91601,0.4758 -13.91602,0.4759 z m 143.30676,-0.7419 -0.9216,-2.4017 0.48582,-73.2872 0.48582,-73.2873 h 14.84375 14.84375 v 75.1465 75.1465 l -14.40797,0.5424 -14.40797,0.5424 z m 68.21693,0.7421 -2.34093,-1.5265 0.48546,-74.0959 0.48546,-74.0959 14.23623,-0.5393 14.23624,-0.5394 2.14055,2.3948 2.14055,2.3948 24.44351,39.8926 24.4435,39.8926 0.9277,-41.7481 0.9278,-41.748 h 15.7714 15.7715 v 75.1465 75.1465 h -14.5203 -14.5204 l -26.7299,-44.2278 -26.72976,-44.2277 -0.49782,44.2277 -0.49783,44.2278 -13.91602,0.4758 -13.91601,0.4759 z m 177.89187,-1.5673 -8.1403,-2.9757 -8.7795,-8.574 -8.7795,-8.574 -4.34,-11.1328 -4.34,-11.1328 -0.053,-29.6875 -0.053,-29.6875 4.2491,-10.5792 4.249,-10.5792 8.3284,-9.2631 8.3283,-9.2632 10.5905,-4.0977 10.5904,-4.0977 h 15.7715 15.7715 l 9.8111,4.2497 9.8111,4.2498 7.0254,7.9812 7.0254,7.9813 2.1821,7.283 2.182,7.2831 v 3.9595 3.9596 h -14.6605 -14.6604 l -3.7697,-6.3891 -3.7696,-6.3891 -7.7554,-2.0883 -7.7554,-2.0883 -7.6325,1.2895 -7.6324,1.2895 -5.8834,5.8833 -5.8833,5.8834 -2.0364,7.3348 -2.0364,7.3348 -0.01,20.0059 -0.01,20.0059 2.5309,6.0573 2.5309,6.0573 5.9611,5.0159 5.9611,5.0159 h 11.0826 11.0826 l 5.224,-2.7014 5.2241,-2.7015 3.0334,-6.3924 3.0334,-6.3925 v -2.8818 -2.8819 l -12.5244,-0.5487 -12.5244,-0.5486 v -12.9883 -12.9883 h 28.7597 28.7598 l -0.088,20.4102 -0.088,20.4102 -5.1474,10.205 -5.1473,10.2051 -4.9695,5.2756 -4.9695,5.2755 -9.2773,4.8344 -9.2774,4.8343 -19.4824,0.5121 -19.4824,0.5121 z m -817.61365,-227.21501 -14.91426,-1.56949 -17.77703,-4.50951 -17.77702,-4.50951 -13.99249,-6.46493 -13.9925,-6.46493 -12.69121,-8.2318 -12.69122,-8.2318 -10.89908,-9.98946 -10.89908,-9.98947 -9.1138,-12.97759 -9.11381,-12.97758 -13.38555,-4.89631 -13.38556,-4.8963 -10.20507,-5.14467 -10.20508,-5.14466 L 121.379,846.2713 110.15842,838.31803 98.766068,826.13956 87.37371,813.9611 l -7.772711,-13.08341 -7.77271,-13.08341 -5.238984,-15.2692 -5.238983,-15.26919 -1.934589,-12.06055 -1.93459,-12.06055 -0.01657,-10.20508 -0.01657,-10.20507 L 44.926146,697.5961 32.404289,682.46757 26.224611,672.21058 20.044932,661.9536 13.771624,647.44353 7.4983153,632.93346 l -2.85463,-13.57044 -2.8546301,-13.57044 0.013,-22.60819 0.012999,-22.60819 3.6999501,-15.43358 3.6999503,-15.43358 6.2056974,-13.43142 6.205698,-13.43142 6.561741,-10.25766 6.561741,-10.25765 -1.533309,-2.73987 -1.53331,-2.73987 -3.837016,-13.80154 -3.837015,-13.80154 -1.845819,-16.19101 -1.845819,-16.19101 1.993931,-17.88173 1.993931,-17.88172 3.800925,-12.31398 3.800926,-12.31398 6.994904,-13.91602 6.994905,-13.91602 8.584383,-11.41825 8.584384,-11.41826 10.862502,-10.05676 10.862501,-10.05676 8.370772,-5.29575 8.370772,-5.29575 1.25005,-13.79482 1.25006,-13.79482 4.76166,-15.09848 4.76167,-15.09847 6.065,-12.06144 6.06499,-12.06144 8.68021,-11.54722 8.6802,-11.54723 14.56134,-13.52777 14.56135,-13.52778 11.75831,-6.96621 11.75832,-6.9662 14.12216,-5.45484 14.12216,-5.45484 15.56534,-3.10729 15.56534,-3.10729 9.97658,-12.921994 9.97658,-12.921946 15.07224,-12.000621 15.07225,-12.000621 16.69922,-8.185819 16.69922,-8.185819 14.84375,-3.929853 14.84375,-3.929853 22.26562,-0.975903 22.26563,-0.975902 15.77148,3.221597 15.77149,3.221597 8.93542,3.5184 8.93542,3.5184 10.547,6.700694 10.547,6.700694 9.46565,8.030115 9.46565,8.030116 10.16555,-9.84611 10.16555,-9.84611 11.91177,-6.609814 11.91177,-6.609814 13.91602,-4.321921 13.91601,-4.32192 28.75977,-0.0042 28.75976,-0.0042 15.46835,4.229213 15.46836,4.229212 11.69052,5.300737 11.69052,5.300736 11.80597,7.998727 11.80597,7.998727 12.14985,12.158824 12.14986,12.158792 6.40483,7.858379 6.40483,7.85839 14.84375,2.95914 14.84375,2.95913 13.82987,5.51293 13.82986,5.51293 11.21897,6.70175 11.21896,6.70174 12.48018,9.9466 12.48018,9.9466 10.05328,12.48018 10.05327,12.48018 6.72379,12.27578 6.72379,12.27578 5.49699,16.26228 5.497,16.26228 2.16134,15.44992 2.16134,15.44993 10.39887,7.30695 10.39888,7.30694 11.38623,11.87512 11.38623,11.87511 9.38258,14.37268 9.38258,14.37267 5.70378,14.79039 5.70378,14.79039 2.98041,12.50088 2.9804,12.50087 0.0764,21.33789 0.0764,21.33789 -3.11796,12.06055 -3.11796,12.06054 -3.80497,9.51339 -3.80497,9.51338 5.56181,9.0413 5.56181,9.04131 6.59227,13.91601 6.59226,13.91602 3.63395,14.26029 3.63394,14.26029 1.25187,15.4283 1.25174,15.4283 -2.28397,17.62586 -2.28404,17.62587 -3.66123,12.06054 -3.66123,12.06055 -8.07026,15.29508 -8.07027,15.29508 -8.28253,10.68148 -8.28254,10.68148 -6.6793,6.39426 -6.67931,6.39425 -0.0322,15.87137 -0.0322,15.87137 -2.62919,12.40548 -2.62919,12.40549 -4.56636,11.30516 -4.56636,11.30517 -6.22438,10.34531 -6.22438,10.34532 -10.88938,11.92806 -10.88937,11.92806 -11.31292,8.70509 -11.31292,8.70509 -13.44763,6.7557 -13.44762,6.7557 -12.37856,3.49659 -12.37857,3.4966 -9.68435,12.98828 -9.68435,12.98828 -10.93951,10.303 -10.93951,10.30299 -8.94667,6.11314 -8.94667,6.11313 -17.44301,8.26283 -17.44301,8.26284 -17.55512,4.45322 -17.55512,4.45322 -19.99343,2.15262 -19.99343,2.15262 -14.91919,-1.28115 -14.91919,-1.28115 -14.67655,-2.76326 -14.67655,-2.76326 -14.90429,-5.43939 -14.90429,-5.43939 -13.09494,-7.75491 -13.09494,-7.75491 -17.26541,-17.22897 -17.2654,-17.22897 -14.26129,14.03183 -14.26129,14.03182 -15.01472,9.99044 -15.01471,9.99045 -10.42809,4.6118 -10.42809,4.61179 -14.46605,3.65522 -14.46605,3.65521 -18.01769,1.9727 -18.01769,1.97269 -8.8866,-0.24655 -8.88661,-0.24655 z m 53.87911,-40.35258 7.42188,-1.2511 0.47459,-153.51224 0.47459,-153.51224 -34.78006,-35.71419 -34.78006,-35.7142 -41.11243,-41.93189 -41.11243,-41.93189 -3.287,-6.3103 -3.28701,-6.31029 -0.85604,-29.04991 -0.85604,-29.0499 -7.30361,-3.29347 -7.30362,-3.29348 -9.11525,-9.97353 -9.11524,-9.97353 -2.82391,-9.50912 -2.8239,-9.50912 v -10.72644 -10.72644 l 3.81067,-10.18493 3.81067,-10.18494 8.15621,-9.07166 8.15621,-9.07167 11.69034,-5.26579 11.69035,-5.26579 11.13281,0.005 11.13281,0.005 9.59374,3.21005 9.59374,3.21006 8.58491,7.55673 8.58491,7.55674 4.84057,9.50621 4.84058,9.50622 0.86993,13.26384 0.86992,13.26384 -3.33069,10.58914 -3.33069,10.58914 -8.86575,9.70054 -8.86576,9.70055 -8.54171,4.48358 -8.54171,4.48359 1.20149,24.12109 1.20149,24.12109 9.56353,10.18737 9.56354,10.18738 34.51044,35.27161 34.51044,35.27161 32.28643,34.00696 32.28644,34.00695 2.6725,4.95789 2.6725,4.95789 -0.0884,11.13281 -0.0884,11.13281 0.89179,140.3938 0.8918,140.39379 9.51236,-5.75688 9.51236,-5.75687 12.43256,-12.68944 12.43256,-12.68944 6.1141,-12.4195 6.1141,-12.41951 0.60998,-147.10687 0.60998,-147.10687 -36.67254,-38.49532 -36.67255,-38.49532 -22.58837,-23.19336 -22.58837,-23.19336 -2.57151,-4.63867 -2.5715,-4.63868 -0.92774,-75.74293 -0.92773,-75.74293 -2.82107,-1.57669 -2.82107,-1.57668 -9.78503,-7.79095 -9.78503,-7.79096 -5.01194,-9.51833 -5.01194,-9.51834 -0.009,-17.62695 -0.009,-17.62695 4.49564,-9.13431 4.49563,-9.13431 7.29038,-7.29037 7.29037,-7.29038 10.47961,-4.91173 10.47962,-4.91173 14.84375,-0.001 14.84375,-0.001 9.24799,4.55067 9.248,4.55067 7.80192,8.0276 7.80193,8.02759 4.00397,10.6151 4.00398,10.61509 -0.79087,14.84375 -0.79086,14.84375 -4.77023,9.31409 -4.77023,9.31409 -8.99866,8.38168 -8.99866,8.38167 -6.03027,2.47563 -6.03027,2.47563 0.0172,70.74658 0.0172,70.74657 42.61035,43.60352 42.61036,43.60351 -0.25804,-175.3418 -0.25805,-175.34179 -1.08533,-15.49514 -1.08534,-15.49515 -11.61692,-10.9179 -11.61692,-10.917865 -7.77625,-3.967131 -7.77624,-3.967144 -10.29433,-3.589656 -10.29434,-3.589656 -15.83671,-1.069014 -15.83672,-1.069014 -15.54123,3.149056 -15.54123,3.149056 -11.94045,5.414056 -11.94044,5.41405 -11.59286,8.272442 -11.59286,8.2725 -9.6662,10.57635 -9.66619,10.57636 -4.53626,8.95188 -4.53626,8.95188 -3.59146,1.92209 -3.59146,1.92209 h -7.62208 -7.62208 l -14.30166,2.89496 -14.30166,2.89496 -17.62695,8.48429 -17.62695,8.48428 -15.87855,15.98892 -15.87854,15.98892 -7.68591,14.94874 -7.68591,14.94875 -3.95612,14.42021 -3.95613,14.42021 0.33812,15.16229 0.33811,15.1623 -0.1857,2.26354 -0.1857,2.26354 -14.37988,6.92145 -14.37989,6.92145 -14.94607,14.9361 -14.946078,14.9361 -7.623187,14.84375 -7.623188,14.84375 -3.004593,11.63668 -3.004594,11.63668 -1.099441,14.33989 -1.099441,14.33988 2.998433,12.06055 2.998433,12.06054 8.405033,16.69922 8.405033,16.69922 -0.03778,2.3345 -0.03778,2.33449 -11.192078,13.32968 -11.192077,13.32968 -5.504232,11.24012 -5.504232,11.24012 -3.951369,15.72465 -3.95137,15.72464 0.977034,21.38473 0.977034,21.38473 4.082232,12.98829 4.082231,12.98828 6.739492,12.90233 6.739491,12.90232 16.006441,16.78518 16.00644,16.78517 1.002826,24.12109 1.002826,24.12109 4.591951,12.50874 4.59196,12.50874 6.26625,10.68462 6.26626,10.68462 12.98828,12.99967 12.98828,12.99967 13.05736,6.84034 13.05736,6.84034 16.31663,4.72837 16.31663,4.72838 1.62989,1.00733 1.62989,1.00732 6.07063,11.38967 6.07063,11.38967 9.13728,9.99764 9.13729,9.99765 11.47242,8.18654 11.47241,8.18655 13.75134,6.49509 13.75133,6.4951 11.48038,2.91036 11.48038,2.91037 14.49619,1.62077 14.49618,1.62076 14.84375,-0.9424 14.84375,-0.9424 z m -76.07422,-95.00644 -12.98828,-1.703 -12.92318,-4.08961 -12.92319,-4.08961 -12.50388,-8.45257 -12.50388,-8.45258 -24.88704,-23.58135 -24.88703,-23.58135 -3.1512,-6.64067 -3.15121,-6.64067 2.0459,-6.19912 2.0459,-6.19913 3.83589,-3.47144 3.83589,-3.47143 h 8.02221 8.02221 l 27.50076,26.93983 27.50076,26.93984 9.43809,5.01782 9.43808,5.01783 11.89981,2.80495 11.8998,2.80496 4.17481,0.0274 4.1748,0.0274 v -45.43515 -45.43514 l -38.27347,-38.11941 -38.27347,-38.11941 -9.97113,-8.5186 -9.97113,-8.5186 -9.7388,4.37772 -9.7388,4.37772 -15.77148,-0.0644 -15.77149,-0.0644 -9.67919,-5.01343 -9.67919,-5.01342 -6.79771,-6.79772 -6.79772,-6.79771 -4.46252,-9.74745 -4.46253,-9.74745 -0.0712,-13.63554 -0.0712,-13.63554 3.93005,-10.504 3.93005,-10.504 7.80323,-7.8465 7.80323,-7.8465 10.20508,-4.8137 10.20507,-4.81369 h 14.84375 14.84375 l 10.50297,5.1578 10.50296,5.1578 6.57976,7.28301 6.57976,7.283 4.25004,7.96935 4.25004,7.96935 0.005,18.30976 0.005,18.30976 52.54637,51.14877 52.54636,51.14878 2.74741,5.3129 2.74741,5.31291 -0.55744,61.00913 -0.55745,61.00914 -3.90489,5.23505 -3.90489,5.23505 -5.65724,3.31329 -5.65724,3.31328 -8.99256,0.72682 -8.99255,0.72682 z M 195.28125,577.5315 l 5.97068,-2.52712 3.59757,-4.03655 3.59757,-4.03655 0.80001,-11.05995 0.8,-11.05994 -4.9102,-6.43761 -4.9102,-6.4376 -7.19414,-2.15542 -7.19413,-2.15541 -6.6185,1.24164 -6.61851,1.24163 -5.49717,4.62557 -5.49717,4.62556 -2.17803,6.59952 -2.17804,6.59952 1.15344,5.76718 1.15343,5.76718 2.85703,4.36038 2.85703,4.36038 5.92946,3.61542 5.92946,3.61542 6.08987,0.007 6.08987,0.007 z m 496.74217,340.09422 15.77148,-4.04693 16.07001,-6.90892 16.07,-6.90891 11.98134,-8.5497 11.98133,-8.5497 8.51015,-9.46534 8.51014,-9.46533 4.63524,-9.79807 4.63523,-9.79808 2.40679,-1.94099 2.4068,-1.94099 6.49414,-1.27176 6.49414,-1.27175 12.06055,-3.81093 12.06055,-3.81094 12.25026,-6.35015 12.25026,-6.35015 10.23379,-9.12123 10.23378,-9.12122 8.63424,-12.63664 8.63423,-12.63664 4.92996,-13.87414 4.92996,-13.87414 0.80999,-25.04883 0.81,-25.04882 13.57538,-13.21616 13.57537,-13.21617 6.8481,-10.7053 6.8481,-10.7053 5.32394,-14.58796 5.32395,-14.58796 2.12793,-18.04301 2.12793,-18.04301 -2.24857,-14.68862 -2.24857,-14.68861 -4.64818,-12.88582 -4.64817,-12.88583 -5.58404,-9.47055 -5.58404,-9.47056 -8.18542,-9.58113 -8.18542,-9.58113 v -2.22093 -2.22092 l 7.30204,-12.10694 7.30203,-12.10693 4.03324,-17.01507 4.03324,-17.01506 -1.06903,-14.33989 -1.06903,-14.33988 -2.97438,-11.47849 -2.97437,-11.47849 -5.54857,-11.37979 -5.54857,-11.37979 -8.97283,-11.98146 -8.97283,-11.98147 -10.86129,-8.06708 -10.86129,-8.06709 -10.31609,-5.22395 -10.3161,-5.22395 -1.97774,-2.47074 -1.97774,-2.47074 -0.16845,-16.14223 -0.16846,-16.14223 -2.76338,-11.91548 -2.76339,-11.91548 -4.61267,-10.43008 -4.61268,-10.43008 -6.48804,-9.7544 -6.48804,-9.7544 -10.66494,-10.81774 -10.66494,-10.81774 -8.04172,-5.53285 -8.04171,-5.53284 -11.72122,-5.48502 -11.72122,-5.48502 -12.82581,-2.71714 -12.82581,-2.71714 -11.30911,-0.0322 -11.3091,-0.0322 -2.86243,-3.24707 -2.86243,-3.24707 -5.56789,-11.13281 -5.56789,-11.13282 -10.19626,-9.64227 -10.19627,-9.64227 -11.54179,-7.459806 -11.5418,-7.459788 -10.47564,-3.94146 -10.47564,-3.941459 -14.84375,-2.833173 -14.84375,-2.833174 -14.84375,0.98535 -14.84375,0.98535 -12.50614,3.941732 -12.50614,3.941731 -11.61495,7.905799 -11.61496,7.905768 -6.03027,8.93419 -6.03028,8.9342 v 176.11679 176.11678 l 17.16309,-19.12045 17.16308,-19.12045 12.92052,-14.7988 12.92052,-14.79881 13.51991,-14.1668 13.51991,-14.16681 v -48.38211 -48.38211 l -2.31933,-1.93652 -2.31934,-1.93652 -9.27734,-6.02238 -9.27735,-6.02237 -6.00505,-8.98541 -6.00505,-8.98542 -2.06276,-7.6605 -2.06276,-7.6605 0.68598,-13.04158 0.68598,-13.04159 4.50141,-9.22895 4.50141,-9.22896 7.51909,-7.51453 7.5191,-7.51454 9.27734,-4.40299 9.27734,-4.403 13.07378,-0.0368 13.07377,-0.0368 11.04732,5.04838 11.04732,5.04837 6.19596,5.92982 6.19595,5.92981 4.77677,9.27735 4.77678,9.27734 0.80552,13.91602 0.80552,13.91601 -3.90735,10.35231 -3.90735,10.3523 -6.27742,7.33375 -6.27742,7.33375 -9.94309,5.3277 -9.94309,5.32769 -0.64983,0.52019 -0.64983,0.5202 0.26599,52.8722 0.266,52.8722 -2.673,6.16222 -2.673,6.16221 -43.04523,48.24219 -43.04523,48.24219 -15.59227,17.86817 -15.59227,17.86818 v 161.70134 161.70133 l 5.39632,10.69005 5.39632,10.69004 8.98278,9.99102 8.98279,9.99102 7.42265,5.37809 7.42266,5.37809 0.92773,-134.19312 0.92774,-134.19312 3.05727,-5.56641 3.05727,-5.5664 86.4691,-84.18317 86.46909,-84.18317 v -18.15436 -18.15436 l -9.91947,-5.5982 -9.91946,-5.5982 -7.60735,-8.64241 -7.60735,-8.6424 -3.10462,-9.34712 -3.10461,-9.34713 0.79324,-15.11335 0.79325,-15.11335 5.38864,-9.90071 5.38864,-9.9007 8.93836,-8.03636 8.93836,-8.03635 9.45103,-3.13913 9.45103,-3.13913 14.15098,0.8491 14.15097,0.8491 9.50622,4.85463 9.50621,4.85463 7.55674,8.58491 7.55673,8.5849 3.18972,9.59374 3.18971,9.59374 0.003,13.07378 0.003,13.07377 -4.66145,10.11959 -4.66146,10.11958 -8.37734,8.07146 -8.37733,8.07146 -7.21675,4.04919 -7.21674,4.04918 v 24.98873 24.98873 l -2.7832,3.91117 -2.78321,3.91117 -73.29101,70.92155 -73.29102,70.92155 -13.51756,13.59883 -13.51757,13.59884 0.50739,104.5372 0.5074,104.53719 0.56757,32.82001 0.56758,32.82001 9.65939,1.90198 9.6594,1.90198 5.5664,0.84431 5.56641,0.84432 20.41016,-0.67238 20.41015,-0.67237 z m -22.13373,-86.50247 -6.36225,-3.35955 -3.82502,-5.21474 -3.82502,-5.21475 -0.69014,-46.34167 -0.69014,-46.34168 55.40866,-55.69647 55.40865,-55.69647 -0.64773,-15.5673 -0.64773,-15.56731 3.09784,-9.32673 3.09785,-9.32674 8.30676,-9.23911 8.30675,-9.23912 10.58102,-5.19599 10.58102,-5.19598 12.06055,0.10629 12.06055,0.10629 10.47961,4.80692 10.47962,4.80692 7.53422,7.53421 7.53422,7.53422 4.25179,7.96273 4.25179,7.96273 v 18.55469 18.55468 l -4.01842,7.50528 -4.01841,7.50527 -8.64392,7.96769 -8.64391,7.96768 -8.67556,3.90313 -8.67556,3.90313 h -12.98829 -12.98828 l -9.02431,-4.0574 -9.02431,-4.0574 -6.74717,5.39753 -6.74718,5.39753 -41.17833,41.50666 -41.17833,41.50665 -1.49745,4.574 -1.49745,4.574 0.57037,24.83124 0.57037,24.83124 13.34565,-1.21432 13.34564,-1.21432 9.69432,-2.56258 9.69432,-2.56258 6.07716,-3.8301 6.07717,-3.8301 11.72,-13.04944 11.72,-13.04943 h 6.54826 6.54826 l 5.25538,3.74216 5.25537,3.74216 2.04475,6.19565 2.04475,6.19566 -1.73584,4.56561 -1.73585,4.56562 -13.99017,14.87164 -13.99017,14.87164 -10.9835,5.85415 -10.9835,5.85414 -15.55809,3.62026 -15.55809,3.62026 -20.41015,1.15558 -20.41016,1.15558 z m 163.03494,-215.49022 6.32183,-3.39043 3.50307,-6.35078 3.50308,-6.35078 -0.83635,-8.0977 -0.83635,-8.09771 -3.58299,-4.89057 -3.583,-4.89058 -6.36224,-3.33341 -6.36225,-3.33341 -7.08863,1.05689 -7.08863,1.05689 -4.7612,3.11965 -4.76119,3.11965 -2.53006,6.05528 -2.53005,6.05528 0.0408,5.16214 0.0408,5.16213 3.60783,7.9491 3.60783,7.94909 6.09263,2.64723 6.09263,2.64722 5.59535,0.0726 5.59536,0.0726 z m -57.78893,-234.09544 7.96581,-3.61532 3.83179,-8.66241 3.8318,-8.6624 -1.04385,-6.43247 -1.04384,-6.43247 -2.96883,-4.531 -2.96882,-4.531 -5.92946,-3.61542 -5.92946,-3.61542 h -7.42188 -7.42187 l -5.94019,3.62195 -5.9402,3.62195 -3.10159,5.9978 -3.10158,5.99781 0.15977,7.95988 0.15977,7.95988 2.7569,5.33125 2.7569,5.33125 4.34698,2.84825 4.34698,2.84825 3.6336,0.92299 3.6336,0.92299 3.71093,0.17448 3.71094,0.17449 z m -517.69318,-29.67971 7.94841,-3.60753 3.60752,-7.9484 3.60753,-7.94841 0.0408,-4.35825 0.0408,-4.35826 -3.09857,-6.52975 -3.09857,-6.52974 -5.7149,-3.48495 -5.71491,-3.48494 -7.97789,-0.007 -7.97788,-0.007 -5.55632,2.87328 -5.55632,2.87328 -3.62195,5.9402 -3.62194,5.94019 -0.007,8.1306 -0.007,8.1306 3.7225,6.02313 3.7225,6.02312 6.01871,2.96711 6.01872,2.96711 4.63867,0.002 4.63867,10e-4 z m 380.64041,-110.88906 6.36224,-3.24418 3.73579,-5.09523 3.73579,-5.09522 v -8.96099 -8.96099 l -4.03122,-5.66132 -4.03122,-5.66132 -6.77521,-3.21505 -6.77522,-3.21505 -6.44586,1.04602 -6.44586,1.04602 -4.531,2.96882 -4.531,2.96883 -3.72565,5.92945 -3.72564,5.92946 0.73154,8.53128 0.73154,8.53128 3.54655,4.84821 3.54656,4.84822 5.5664,2.81361 5.56641,2.81361 5.56641,0.0394 5.5664,0.0394 z m -244.2867,-9.44817 5.14195,-2.99229 3.67153,-7.58436 3.67152,-7.58436 v -5.07273 -5.07273 l -2.75521,-5.32798 -2.7552,-5.32798 -5.17057,-3.68177 -5.17056,-3.68177 -5.52638,-0.45525 -5.52638,-0.45526 -5.32083,0.2798 -5.32083,0.27981 -7.20358,7.20358 -7.20359,7.20359 v 8.66004 8.66004 l 2.59325,5.01478 2.59324,5.01477 3.70153,3.34984 3.70153,3.34984 5.3019,1.60797 5.30191,1.60797 5.56641,-1.00162 5.56641,-1.00163 z"
       id="path1" /></g></svg>
